<mxfile host="app.diagrams.net" agent="Mozilla/5.0 (Windows NT 10.0; WOW64) AppleWebKit/537.36 (KHTML, like Gecko) Chrome/101.0.4951.64 Safari/537.36" version="25.0.3">
  <diagram id="C5RBs43oDa-KdzZeNtuy" name="Page-1">
    <mxGraphModel dx="819" dy="431" grid="1" gridSize="10" guides="1" tooltips="1" connect="1" arrows="1" fold="1" page="1" pageScale="1" pageWidth="827" pageHeight="1169" math="0" shadow="0">
      <root>
        <mxCell id="WIyWlLk6GJQsqaUBKTNV-0" />
        <mxCell id="WIyWlLk6GJQsqaUBKTNV-1" parent="WIyWlLk6GJQsqaUBKTNV-0" />
        <mxCell id="VdxOH2AFOqyBAfq9SQBN-2" value="" style="edgeStyle=orthogonalEdgeStyle;rounded=0;orthogonalLoop=1;jettySize=auto;html=1;" edge="1" parent="WIyWlLk6GJQsqaUBKTNV-1" source="WIyWlLk6GJQsqaUBKTNV-3" target="VdxOH2AFOqyBAfq9SQBN-1">
          <mxGeometry relative="1" as="geometry" />
        </mxCell>
        <mxCell id="WIyWlLk6GJQsqaUBKTNV-3" value="创建B2B转运单" style="rounded=1;whiteSpace=wrap;html=1;fontSize=12;glass=0;strokeWidth=1;shadow=0;" parent="WIyWlLk6GJQsqaUBKTNV-1" vertex="1">
          <mxGeometry x="160" y="80" width="120" height="40" as="geometry" />
        </mxCell>
        <mxCell id="VdxOH2AFOqyBAfq9SQBN-8" value="" style="edgeStyle=orthogonalEdgeStyle;rounded=0;orthogonalLoop=1;jettySize=auto;html=1;" edge="1" parent="WIyWlLk6GJQsqaUBKTNV-1" source="VdxOH2AFOqyBAfq9SQBN-1" target="VdxOH2AFOqyBAfq9SQBN-7">
          <mxGeometry relative="1" as="geometry" />
        </mxCell>
        <mxCell id="VdxOH2AFOqyBAfq9SQBN-1" value="生成拣货单" style="rounded=1;whiteSpace=wrap;html=1;fontSize=12;glass=0;strokeWidth=1;shadow=0;" vertex="1" parent="WIyWlLk6GJQsqaUBKTNV-1">
          <mxGeometry x="160" y="200" width="120" height="40" as="geometry" />
        </mxCell>
        <mxCell id="VdxOH2AFOqyBAfq9SQBN-3" value="Pool" style="swimlane;childLayout=stackLayout;resizeParent=1;resizeParentMax=0;horizontal=1;startSize=20;horizontalStack=0;html=1;" vertex="1" parent="WIyWlLk6GJQsqaUBKTNV-1">
          <mxGeometry x="70" y="30" width="620" height="590" as="geometry" />
        </mxCell>
        <mxCell id="VdxOH2AFOqyBAfq9SQBN-4" value="WMS" style="swimlane;startSize=20;horizontal=0;html=1;" vertex="1" parent="VdxOH2AFOqyBAfq9SQBN-3">
          <mxGeometry y="20" width="620" height="260" as="geometry" />
        </mxCell>
        <mxCell id="VdxOH2AFOqyBAfq9SQBN-5" value="PDA" style="swimlane;startSize=20;horizontal=0;html=1;" vertex="1" parent="VdxOH2AFOqyBAfq9SQBN-3">
          <mxGeometry y="280" width="620" height="120" as="geometry" />
        </mxCell>
        <mxCell id="VdxOH2AFOqyBAfq9SQBN-7" value="拣货" style="rounded=1;whiteSpace=wrap;html=1;fontSize=12;glass=0;strokeWidth=1;shadow=0;" vertex="1" parent="VdxOH2AFOqyBAfq9SQBN-5">
          <mxGeometry x="90" y="40" width="120" height="40" as="geometry" />
        </mxCell>
        <mxCell id="VdxOH2AFOqyBAfq9SQBN-11" value="是否正常拣货" style="rhombus;whiteSpace=wrap;html=1;" vertex="1" parent="VdxOH2AFOqyBAfq9SQBN-5">
          <mxGeometry x="280" y="20" width="80" height="80" as="geometry" />
        </mxCell>
        <mxCell id="VdxOH2AFOqyBAfq9SQBN-10" value="" style="edgeStyle=orthogonalEdgeStyle;rounded=0;orthogonalLoop=1;jettySize=auto;html=1;" edge="1" parent="VdxOH2AFOqyBAfq9SQBN-5" source="VdxOH2AFOqyBAfq9SQBN-7" target="VdxOH2AFOqyBAfq9SQBN-11">
          <mxGeometry relative="1" as="geometry">
            <mxPoint x="150" y="140" as="targetPoint" />
          </mxGeometry>
        </mxCell>
        <mxCell id="VdxOH2AFOqyBAfq9SQBN-6" value="Lane 3" style="swimlane;startSize=20;horizontal=0;html=1;" vertex="1" parent="VdxOH2AFOqyBAfq9SQBN-3">
          <mxGeometry y="400" width="620" height="190" as="geometry" />
        </mxCell>
      </root>
    </mxGraphModel>
  </diagram>
</mxfile>
